# xmcd CD database file
#
# Track frame offsets:
#	187
#	15150
#	28825
#	48200
#	74400
#	96900
#	122675
#	146950
#	162075
#	174462
#	196062
#	206900
#	226575
#	237250
#	260237
#	272512
#
# Disc length: 3856 seconds
#
# Revision: 0
# Processed by: cddbd v1.4PL0 Copyright (c) Steve Scherf et al.
# Submitted via: CDex 1.50
#
DISCID=dc0f0e10
DTITLE=Various Artist - Midnight Jazz
DYEAR=1989
DGENRE=Jazz
TTITLE0=Round Midnight
TTITLE1=Cocktails For Two
TTITLE2=You'd Be So Nice To Come Home To
TTITLE3=It Never Entered My Mind
TTITLE4=Stat Eyes
TTITLE5=Straight No Chaser
TTITLE6=Midnight Mood
TTITLE7=Tequila
TTITLE8=The Days Of Wine And Roses
TTITLE9=Once I Loved
TTITLE10=Corcovado
TTITLE11=No More Blues
TTITLE12=Fly Me To The Moon
TTITLE13=You've Got It Bad Girl
TTITLE14=Isn't It Romantic
TTITLE15=There Is No Greater Love
EXTD=YEAR: 1989
EXTT0=
EXTT1=
EXTT2=
EXTT3=
EXTT4=
EXTT5=
EXTT6=
EXTT7=
EXTT8=
EXTT9=
EXTT10=
EXTT11=
EXTT12=
EXTT13=
EXTT14=
EXTT15=
PLAYORDER=
